<?xml version="1.0" standalone="no"?>
<!DOCTYPE svg PUBLIC "-//W3C//DTD SVG 20010904//EN"
 "http://www.w3.org/TR/2001/REC-SVG-20010904/DTD/svg10.dtd">
<svg version="1.0" xmlns="http://www.w3.org/2000/svg"
 width="1098.000000pt" height="1280.000000pt" viewBox="0 0 1098.000000 1280.000000"
 preserveAspectRatio="xMidYMid meet">
<metadata>
Created by potrace 1.15, written by Peter Selinger 2001-2017
</metadata>
<g transform="translate(0.000000,1280.000000) scale(0.100000,-0.100000)"
fill="#000000" stroke="none">
<path d="M4624 12783 c-17 -10 -49 -33 -72 -52 -37 -30 -42 -39 -42 -76 0 -26
10 -60 25 -89 30 -56 30 -56 6 -56 -11 0 -22 -8 -25 -17 -25 -85 -46 -689 -72
-2050 -4 -194 -11 -353 -16 -353 -5 0 -35 14 -68 30 -115 58 -262 80 -395 60
-106 -16 -151 -35 -294 -125 -66 -41 -167 -98 -222 -125 l-102 -50 -206 3
c-236 2 -262 -3 -330 -67 -24 -22 -103 -115 -176 -206 -72 -91 -160 -191 -194
-223 -63 -57 -73 -63 -372 -205 -120 -58 -172 -117 -333 -383 -154 -255 -189
-301 -338 -440 -107 -100 -251 -269 -229 -269 5 0 13 4 16 10 10 15 299 246
360 286 30 20 68 39 86 43 30 6 34 13 84 146 120 316 188 422 332 516 48 31
389 189 409 189 2 0 -18 -45 -46 -100 -28 -55 -48 -100 -46 -100 6 0 144 218
237 376 113 191 220 301 335 344 73 27 299 52 440 48 103 -3 109 -4 112 -25 2
-13 -10 -35 -30 -58 l-32 -38 34 8 c47 9 77 30 98 66 9 16 33 57 52 91 68 119
154 195 264 232 111 38 324 10 387 -50 95 -91 139 -373 139 -877 0 -243 -16
-613 -28 -682 -7 -35 -11 -40 -35 -40 -17 1 -27 -5 -27 -14 0 -7 31 -289 70
-625 124 -1091 151 -1381 152 -1651 2 -255 -13 -317 -96 -403 -33 -35 -217
-152 -238 -152 -3 0 -8 9 -11 19 -6 23 -42 43 -172 92 -73 28 -92 39 -70 39
84 2 290 21 324 30 21 5 43 16 49 23 8 9 -17 10 -121 4 -140 -9 -244 -4 -293
13 l-30 11 8 87 c4 48 13 105 20 127 7 25 12 114 12 235 1 259 4 264 189 290
93 13 110 22 77 40 -30 16 -140 -3 -204 -34 -95 -47 -125 -126 -151 -401 -8
-84 -18 -151 -24 -153 -16 -5 -13 -43 3 -61 8 -9 23 -39 34 -68 27 -71 2 -60
-35 15 -25 51 -28 68 -28 158 0 106 -10 134 -46 134 -13 0 -19 -7 -19 -22 0
-48 -20 7 -94 257 -142 485 -189 709 -246 1195 -92 773 -110 890 -138 890 -13
0 -77 -155 -78 -190 0 -21 -12 -52 -28 -77 l-28 -43 23 -111 c13 -61 29 -113
34 -114 6 -2 31 -9 58 -15 26 -7 47 -18 47 -24 0 -7 -29 -33 -65 -59 -61 -44
-65 -49 -65 -87 0 -43 -2 -41 83 -55 49 -8 48 -26 -7 -85 l-44 -47 12 -59 c7
-32 18 -69 24 -81 7 -12 12 -44 12 -72 0 -48 1 -51 33 -59 28 -7 32 -12 33
-44 1 -25 14 -52 38 -84 20 -26 39 -59 41 -73 3 -14 10 -45 15 -69 12 -51 6
-64 -57 -139 l-44 -52 38 -7 c51 -9 90 -30 104 -55 12 -24 14 -21 -31 -44 -52
-26 -70 -45 -70 -74 0 -14 -6 -46 -14 -71 -7 -25 -11 -59 -9 -77 4 -26 -7 -48
-71 -141 -42 -60 -76 -112 -76 -115 0 -3 36 10 80 28 83 35 159 59 166 52 11
-10 -511 -317 -539 -317 -5 0 -6 8 -3 18 3 9 8 38 11 64 8 55 -10 80 -74 99
-21 6 -37 17 -35 23 2 6 -2 42 -9 81 -11 60 -16 70 -38 75 -28 7 -28 6 -10 84
9 41 11 88 6 153 -6 87 -8 93 -29 93 -28 0 -46 18 -46 47 0 15 -6 23 -18 23
-42 0 -51 51 -33 165 12 71 1 88 -55 83 l-43 -3 5 36 c8 51 -20 178 -56 249
-16 33 -39 97 -49 143 -28 116 -75 240 -79 207 -8 -53 22 -216 93 -505 41
-165 88 -361 105 -435 17 -74 38 -150 46 -169 8 -18 14 -47 14 -63 0 -71 97
-351 125 -362 8 -3 15 -11 15 -18 0 -36 24 -91 58 -132 26 -31 47 -74 67 -137
31 -100 33 -102 85 -127 27 -13 42 -32 65 -80 17 -34 43 -74 58 -88 15 -14 38
-46 51 -73 19 -36 35 -52 66 -66 22 -10 54 -33 70 -52 29 -33 60 -115 60 -160
0 -20 4 -23 31 -21 34 3 36 1 69 -72 12 -27 34 -54 55 -68 24 -15 47 -46 74
-101 l40 -78 -97 -45 c-160 -74 -209 -91 -244 -84 -41 8 -100 -9 -136 -39 -17
-14 -32 -25 -35 -25 -4 0 -70 49 -149 108 -131 99 -257 182 -277 182 -4 0 -16
-9 -26 -20 -10 -11 -26 -20 -36 -20 -10 0 -41 -9 -69 -20 -65 -26 -80 -25 -46
1 38 30 24 39 -37 23 -65 -17 -68 -17 -61 0 3 9 -5 15 -25 19 -17 4 -32 14
-36 26 -6 19 -30 27 -112 38 -24 3 -43 9 -43 14 0 10 -63 12 -98 3 -30 -8 -23
-28 11 -32 15 -2 27 -10 27 -18 0 -8 4 -14 9 -14 4 0 20 -11 34 -24 14 -13 48
-29 76 -36 38 -9 51 -16 49 -28 -2 -11 9 -18 40 -25 47 -9 47 -20 -1 -41 l-32
-14 41 -1 c44 -1 142 29 183 56 69 44 73 43 25 -8 -29 -30 -59 -69 -68 -86
-16 -31 -20 -33 -69 -33 -68 0 -107 24 -250 156 -162 149 -241 217 -277 238
-18 10 -30 14 -26 8 9 -16 -28 -47 -75 -62 -60 -20 -57 -30 9 -30 68 0 74 -5
94 -75 l14 -49 69 -12 c127 -20 144 -36 105 -100 l-21 -32 53 -10 c47 -8 37
-10 -82 -11 -230 -2 -621 -20 -710 -33 l-85 -12 85 -7 c47 -4 174 -12 282 -18
402 -22 523 -60 343 -107 l-80 -21 160 -7 c88 -3 163 -10 168 -15 9 -9 -41
-30 -77 -32 -48 -3 75 -18 154 -18 95 -1 160 -10 160 -21 0 -4 -21 -13 -47
-21 -56 -15 -61 -14 161 -34 166 -15 246 -29 256 -45 3 -4 190 -11 415 -15
l410 -7 95 42 c91 40 102 42 275 58 l180 17 -93 8 c-117 9 -165 27 -160 59 2
13 14 28 28 35 35 16 159 31 330 39 l145 6 0 -100 c0 -83 -3 -103 -18 -120
-22 -25 -18 -42 28 -129 33 -60 33 -61 12 -67 -12 -3 -48 -6 -80 -6 -50 0 -67
-6 -123 -39 l-66 -40 34 -5 c18 -3 70 -7 116 -10 103 -7 134 -20 143 -63 3
-18 12 -39 18 -47 9 -11 5 -15 -26 -18 -41 -5 -787 5 -1628 22 -1258 25 -1566
30 -1990 30 -414 0 -708 -10 -749 -26 -23 -9 -22 -69 2 -79 30 -13 507 -24
1477 -35 1137 -12 1711 -13 1733 -1 17 8 157 1 737 -39 356 -25 460 -36 499
-55 24 -13 119 -13 665 -5 659 10 798 15 818 32 8 6 95 6 250 -1 131 -6 348
-15 483 -21 416 -17 564 -43 749 -131 128 -61 208 -117 291 -206 81 -85 129
-158 185 -276 64 -136 88 -229 175 -702 200 -1072 242 -1260 190 -848 -38 307
-128 785 -334 1772 -37 173 -66 317 -66 320 1 3 16 -23 35 -59 l34 -65 1 41
c0 51 10 60 90 78 79 19 97 12 158 -63 l44 -54 -3 56 c-5 68 4 74 18 15 6 -24
38 -135 71 -248 94 -323 183 -724 357 -1620 38 -196 235 -1263 235 -1275 0 -7
-115 7 -143 17 -15 6 -30 21 -33 34 -3 13 -10 24 -16 24 -5 0 -64 -18 -131
-41 -101 -34 -131 -40 -171 -35 -26 3 -54 10 -60 15 -8 7 -25 7 -49 0 -21 -5
-41 -8 -46 -5 -14 9 -25 231 -12 255 22 40 60 27 124 -41 l59 -62 -4 140 c-3
76 -8 147 -13 157 -13 30 -35 20 -35 -15 0 -46 -9 -55 -60 -67 -145 -32 -349
-36 -1802 -33 -968 1 -1449 -1 -1453 -8 -4 -7 51 -10 161 -10 257 0 1274 -30
1314 -39 28 -6 14 -9 -74 -16 -67 -5 -103 -11 -95 -16 8 -5 26 -9 42 -9 34 0
34 -7 1 -41 -24 -25 -25 -31 -15 -60 6 -18 11 -45 11 -60 l0 -29 73 -1 c121
-2 200 -13 205 -28 4 -11 -49 -12 -329 -7 -184 3 -602 11 -929 16 -847 15
-1293 29 -1301 42 -7 11 -366 16 -2724 38 -676 7 -1257 10 -1289 9 -55 -4 -58
-5 -44 -20 19 -19 186 -49 472 -84 205 -26 256 -38 151 -35 -116 3 -488 0
-484 -4 6 -7 1153 -65 1599 -82 96 -3 191 -10 210 -14 22 -5 4 -6 -50 -4 -135
7 -1203 24 -1469 24 -143 0 -240 -4 -237 -9 9 -14 63 -20 276 -31 844 -43
1201 -48 1861 -25 244 8 428 11 445 5 l29 -8 -27 -1 c-14 -1 -197 -5 -405 -11
-529 -14 -884 -30 -902 -40 -18 -10 23 -15 249 -35 152 -14 149 -14 -225 -9
-526 6 -1191 5 -1220 -2 -14 -3 -25 -10 -25 -16 0 -5 33 -25 72 -44 l73 -35
-135 6 c-155 6 -233 -2 -238 -26 -3 -19 -56 -16 1223 -54 1680 -50 1891 -55
2545 -65 790 -12 1721 -27 2540 -40 1308 -21 2520 -33 2527 -26 5 4 8 148 7
319 0 328 -5 384 -60 712 -60 358 -129 703 -159 793 -8 23 -15 45 -15 47 0 8
824 5 1250 -5 223 -5 543 -13 711 -16 l307 -7 7 164 c11 249 -8 338 -155 749
-131 367 -205 597 -470 1470 -227 750 -345 1082 -430 1216 l-45 71 -305 6
c-168 4 -573 11 -900 17 -327 6 -622 13 -655 16 l-60 5 -33 162 c-80 386 -147
690 -178 805 l-34 123 36 31 c20 17 53 57 75 89 21 32 59 74 83 94 38 31 46
45 61 103 17 63 22 71 102 147 l85 80 10 78 11 78 58 40 c32 23 64 55 72 72
12 24 37 131 37 154 0 2 9 3 19 3 30 0 48 25 60 80 6 27 26 71 45 97 40 57
103 172 142 262 27 61 27 64 9 77 -10 8 -29 14 -42 14 -13 0 -23 3 -23 6 0 13
45 81 92 137 35 42 48 67 48 90 0 18 14 56 30 86 17 30 29 55 28 57 -2 1 -28
-4 -58 -12 -57 -15 -84 -12 -112 13 -24 21 -35 10 -43 -44 l-8 -48 -17 51
c-21 60 -50 118 -56 111 -3 -2 0 -17 6 -32 14 -38 -5 -74 -55 -102 -55 -31
-82 -29 -143 13 -30 20 -55 34 -56 32 -1 -2 -7 -15 -13 -30 -13 -29 -140 -142
-213 -190 -36 -24 -53 -28 -84 -24 -21 2 -48 13 -58 24 -18 17 -18 22 -5 53 8
19 39 72 70 119 30 47 54 86 53 88 -2 1 -29 -7 -61 -18 -103 -35 -134 -23
-148 57 -4 18 -17 50 -31 70 -19 29 -26 58 -32 119 -6 81 -7 82 -43 102 -51
29 -78 61 -90 109 -9 31 -25 53 -61 84 -28 23 -50 49 -50 58 0 9 11 42 24 74
13 31 20 57 15 57 -4 0 -11 -4 -14 -10 -9 -15 -87 -12 -136 5 -49 18 -78 40
-90 73 -10 26 -59 30 -99 7 -59 -34 -102 1 -116 92 l-6 42 -47 -24 c-53 -29
-78 -31 -108 -10 -12 8 -49 21 -83 29 -102 24 -109 43 -61 151 l29 64 -81 -71
c-96 -83 -159 -118 -185 -102 -9 6 -31 31 -48 56 l-30 45 -64 -38 c-70 -43
-159 -79 -193 -79 -48 0 -97 64 -97 126 0 30 -2 30 -67 -6 -29 -17 -53 -28
-53 -25 0 3 23 51 51 108 l51 102 -44 -47 c-24 -27 -52 -48 -61 -48 -28 0 -54
34 -66 87 l-12 50 -72 -18 c-39 -11 -81 -19 -93 -19 -35 0 -137 64 -157 99
-10 17 -22 31 -27 31 -25 0 -160 -56 -198 -82 -23 -16 -83 -75 -132 -132 -49
-56 -108 -116 -132 -133 l-44 -31 -62 83 c-34 46 -88 105 -121 132 -32 26 -61
56 -64 65 -6 19 4 429 29 1188 9 283 17 723 18 977 l1 461 -23 25 -24 25 24
32 c19 26 24 46 26 119 l4 88 -32 23 c-42 30 -106 36 -146 13z m96 -52 c28
-14 36 -26 42 -57 13 -71 10 -84 -16 -84 -68 0 -116 44 -116 108 0 53 32 65
90 33z m6 -358 c14 -168 -59 -3190 -78 -3208 -2 -3 -19 -8 -38 -11 l-33 -7 6
439 c7 482 41 1634 57 1974 6 118 15 312 20 430 23 494 21 470 40 470 16 0 19
-13 26 -87z m734 -2561 c0 -14 -40 -52 -56 -52 -11 0 -12 4 -4 20 15 28 60 52
60 32z m354 -17 c-3 -7 -12 -16 -19 -19 -7 -2 -16 -19 -20 -36 -6 -26 -34 -50
-61 -50 -15 0 0 42 21 56 14 9 28 27 31 40 3 12 13 25 22 27 23 5 32 -1 26
-18z m-144 -52 c0 -10 -42 -53 -51 -53 -9 0 -1 29 14 48 10 13 37 17 37 5z
m-854 -65 c14 -29 36 -63 47 -76 17 -18 22 -39 25 -112 4 -79 7 -90 23 -90 25
0 30 11 38 88 l7 67 52 -102 c28 -56 56 -105 63 -108 6 -4 24 -28 40 -53 23
-37 29 -57 29 -104 0 -55 1 -58 25 -58 20 0 30 -10 51 -52 46 -92 133 -213
220 -309 32 -35 44 -58 49 -93 7 -43 9 -46 24 -31 28 24 39 18 72 -40 17 -31
39 -59 48 -64 9 -5 22 -26 29 -48 24 -68 34 -83 60 -83 24 0 24 -1 17 -62 -4
-35 -13 -96 -20 -136 -10 -61 -10 -72 1 -68 23 9 47 -36 103 -192 49 -135 58
-152 83 -161 15 -5 58 -38 95 -73 38 -35 169 -145 293 -244 124 -98 266 -213
316 -254 l92 -75 30 -115 c39 -146 51 -212 59 -331 7 -109 -1 -169 -22 -169
-27 0 -59 -79 -155 -380 l-8 -25 -6 28 c-3 15 -8 38 -11 52 -5 23 -9 25 -38
20 -26 -5 -37 -2 -56 19 -14 14 -28 26 -31 26 -4 0 -24 -47 -44 -104 -21 -57
-53 -128 -72 -157 -32 -51 -34 -58 -34 -146 l0 -92 -132 -42 c-73 -23 -187
-55 -253 -71 -155 -39 -241 -36 -437 16 -91 24 -160 36 -203 36 -62 0 -67 -2
-83 -29 -21 -38 -65 -49 -200 -52 -165 -3 -153 7 106 91 105 34 195 66 198 71
6 10 -34 10 -161 0 -49 -4 -98 -4 -107 1 -43 21 -50 155 -27 506 14 228 -2
208 179 218 66 4 119 8 118 9 -2 2 -56 10 -120 19 -150 22 -181 17 -213 -38
-27 -48 -35 -88 -70 -365 -26 -211 -48 -317 -70 -348 -12 -17 -15 -17 -49 0
-20 9 -45 17 -55 17 -10 0 -22 10 -26 23 -4 12 -10 154 -12 316 l-5 293 48 50
c66 67 136 114 280 186 161 80 450 207 519 227 64 19 89 38 113 85 9 19 37 49
62 67 78 58 100 80 100 104 0 20 -10 14 -71 -46 -79 -78 -78 -80 -24 72 19 54
29 95 24 99 -6 3 -49 -16 -97 -43 -80 -44 -90 -53 -119 -108 l-32 -60 -1 65
-1 65 -37 -69 c-43 -81 -62 -97 -93 -78 -11 7 -23 11 -26 9 -4 -5 -22 -119
-23 -146 0 -8 -3 -12 -6 -8 -3 3 -10 93 -14 200 -8 190 -16 237 -44 237 -19 0
-43 -30 -54 -70 -8 -28 -10 -8 -11 98 -1 74 -5 132 -10 132 -5 0 -11 -10 -13
-22 -2 -13 -7 -23 -12 -23 -16 0 -24 47 -31 182 -4 70 -9 131 -11 134 -2 4
-29 -1 -59 -9 l-56 -16 5 -110 6 -111 -15 55 c-28 100 -60 142 -82 108 -10
-18 -20 31 -22 109 -2 102 -18 80 -24 -34 -6 -101 -10 -123 -23 -110 -9 9 -23
191 -24 307 0 87 -3 101 -13 85 -18 -31 -13 -254 12 -462 11 -101 21 -191 20
-200 0 -15 -59 184 -83 279 -4 19 -11 25 -21 22 -25 -10 -27 20 -10 138 22
143 21 282 0 314 -13 21 -24 24 -78 25 -34 0 -70 4 -81 8 -15 6 -10 10 24 21
33 11 46 11 61 2 17 -11 21 -9 30 15 13 34 35 211 43 348 8 121 46 1050 46
1118 0 64 22 62 56 -5z m554 17 c-27 -14 -36 -13 -25 4 3 6 16 11 28 11 21 -1
21 -1 -3 -15z m250 -31 c0 -22 -24 -44 -48 -44 l-27 1 28 24 c27 24 47 32 47
19z m100 -1 c0 -12 -43 -53 -57 -53 -19 0 -16 10 9 37 20 22 48 31 48 16z
m-220 -32 c-10 -20 -30 -29 -30 -14 0 10 33 44 37 39 3 -2 0 -14 -7 -25z m276
-19 c-25 -26 -26 -26 -26 -5 0 12 10 29 22 38 33 23 36 -1 4 -33z m105 9 c-13
-23 -51 -35 -51 -16 0 15 27 34 48 35 9 0 10 -5 3 -19z m-561 -10 c0 -11 -29
-35 -35 -29 -10 9 7 38 21 38 8 0 14 -4 14 -9z m420 -62 c0 -18 -2 -19 -15 -9
-15 12 -12 30 6 30 5 0 9 -10 9 -21z m90 1 c-6 -11 -17 -20 -25 -20 -13 0 -13
3 -3 20 7 11 19 20 26 20 10 0 10 -5 2 -20z m117 -24 c-4 -9 -18 -16 -32 -16
-22 0 -24 3 -15 19 18 35 60 32 47 -3z m-243 -31 c-7 -17 -30 -20 -38 -6 -4 5
0 12 6 14 25 10 37 7 32 -8z m84 -7 c-3 -7 -13 -15 -24 -17 -16 -3 -17 -1 -5
13 16 19 34 21 29 4z m126 -13 c-7 -16 -14 -18 -38 -9 -26 10 -18 24 14 24 22
0 28 -4 24 -15z m336 0 c-7 -8 -16 -12 -21 -9 -13 8 -1 24 18 24 13 0 13 -3 3
-15z m-232 -22 c-2 -11 -14 -19 -31 -21 -29 -4 -35 6 -15 26 19 19 50 15 46
-5z m638 -10 c-8 -8 -56 6 -56 17 0 5 13 5 31 -2 16 -6 28 -13 25 -15z m-531
-3 c4 -6 -5 -10 -19 -10 -14 0 -26 5 -26 10 0 6 9 10 19 10 11 0 23 -4 26 -10z
m223 -2 c21 -21 13 -27 -18 -17 -16 6 -30 15 -30 20 0 13 34 11 48 -3z m-888
-7 c0 -13 -29 -35 -37 -28 -7 8 15 37 28 37 5 0 9 -4 9 -9z m110 -1 c12 -8 9
-10 -13 -10 -16 0 -26 4 -22 10 8 12 16 12 35 0z m288 -19 c11 -7 11 -9 -2
-14 -20 -8 -48 2 -40 14 7 11 25 11 42 0z m367 -1 c3 -5 0 -10 -9 -10 -8 0
-21 -3 -30 -6 -11 -4 -16 -1 -16 10 0 18 45 23 55 6z m229 -31 c-7 -12 -41
-11 -49 1 -4 6 -1 18 6 26 10 13 14 12 30 -2 10 -9 16 -21 13 -25z m266 31 c8
-5 11 -12 7 -16 -4 -4 -15 0 -24 9 -18 18 -8 23 17 7z m-766 -15 c23 -17 13
-34 -11 -19 -19 12 -29 34 -16 34 4 0 17 -7 27 -15z m637 -3 c-7 -2 -18 1 -23
6 -8 8 -4 9 13 5 13 -4 18 -8 10 -11z m-306 -18 c20 -15 20 -16 -4 -12 -14 2
-26 9 -29 16 -5 16 9 15 33 -4z m-755 -14 c0 -21 -20 -35 -40 -28 -12 4 16 48
31 48 5 0 9 -9 9 -20z m540 5 c0 -9 -9 -15 -25 -15 -16 0 -25 6 -25 15 0 9 9
15 25 15 16 0 25 -6 25 -15z m-447 -9 c3 -12 -30 -32 -39 -24 -11 12 5 40 21
36 9 -2 17 -7 18 -12z m1191 8 c9 -3 16 -12 16 -20 0 -10 -6 -11 -30 -3 -16 6
-30 15 -30 20 0 10 21 12 44 3z m-988 -24 c0 -24 2 -23 -31 -8 -18 8 -22 14
-13 20 23 14 44 9 44 -12z m568 14 c16 -6 23 -34 9 -34 -11 1 -43 26 -43 34 0
8 14 8 34 0z m147 -14 c21 -17 22 -19 6 -20 -26 0 -59 19 -52 31 9 14 20 11
46 -11z m149 10 c0 -5 -6 -10 -14 -10 -8 0 -18 5 -21 10 -3 6 3 10 14 10 12 0
21 -4 21 -10z m-760 -20 c-6 -11 -16 -17 -25 -14 -28 11 -15 27 28 33 4 0 3
-8 -3 -19z m218 8 c-6 -18 -28 -21 -28 -4 0 9 7 16 16 16 9 0 14 -5 12 -12z
m617 -20 c30 -13 33 -28 6 -28 -17 0 -51 24 -51 36 0 7 18 4 45 -8z m-510 -8
c3 -5 -3 -10 -14 -10 -12 0 -21 5 -21 10 0 6 6 10 14 10 8 0 18 -4 21 -10z
m-225 -10 c0 -5 -13 -10 -30 -10 -16 0 -30 5 -30 10 0 6 14 10 30 10 17 0 30
-4 30 -10z m90 -15 c0 -9 -9 -15 -25 -15 -16 0 -25 6 -25 15 0 9 9 15 25 15
16 0 25 -6 25 -15z m240 -16 c0 -13 -34 -11 -48 3 -21 21 -13 27 18 17 17 -6
30 -15 30 -20z m700 -11 c0 -13 -17 -9 -34 8 -23 22 -8 39 15 18 10 -9 19 -21
19 -26z m-563 26 c-3 -3 -12 -4 -19 -1 -8 3 -5 6 6 6 11 1 17 -2 13 -5z m717
-27 c25 -34 16 -43 -23 -22 -30 15 -39 34 -24 49 11 10 25 2 47 -27z m-1006
-4 c-5 -26 -38 -29 -38 -4 0 15 6 21 21 21 14 0 19 -5 17 -17z m-325 0 c-7 -2
-19 -2 -25 0 -7 3 -2 5 12 5 14 0 19 -2 13 -5z m842 -3 c7 -12 -2 -12 -30 0
-19 8 -19 9 2 9 12 1 25 -3 28 -9z m131 -7 c9 -9 12 -19 7 -20 -17 -6 -65 16
-58 27 9 15 32 12 51 -7z m-866 -8 c0 -9 -9 -15 -25 -15 -16 0 -25 6 -25 15 0
9 9 15 25 15 16 0 25 -6 25 -15z m594 0 c3 -8 2 -15 -3 -15 -5 0 -14 7 -21 15
-10 12 -10 15 3 15 8 0 17 -7 21 -15z m-936 -17 c-7 -19 -45 -21 -51 -4 -5 12
1 16 24 16 20 0 29 -4 27 -12z m642 -19 c0 -6 -7 -8 -16 -5 -9 3 -18 6 -20 6
-2 0 -4 7 -4 15 0 13 4 14 20 5 11 -6 20 -16 20 -21z m871 0 c5 -11 7 -19 5
-19 -12 0 -76 34 -76 40 0 15 61 -4 71 -21z m-1421 6 c0 -8 -9 -15 -20 -15
-20 0 -26 11 -13 23 12 13 33 7 33 -8z m325 5 c-3 -5 -13 -10 -21 -10 -8 0
-14 5 -14 10 0 6 9 10 21 10 11 0 17 -4 14 -10z m595 -9 c0 -12 -26 -32 -33
-25 -9 10 4 34 19 34 8 0 14 -4 14 -9z m146 -5 c10 -8 16 -18 12 -22 -10 -9
-58 12 -58 26 0 14 23 12 46 -4z m481 -8 c38 -43 39 -53 2 -32 -19 11 -35 28
-37 37 -5 24 11 21 35 -5z m-1117 -14 c0 -25 -6 -25 -38 -1 -11 8 -11 12 0 18
24 16 38 9 38 -17z m-233 -10 c-3 -4 -14 -3 -24 0 -15 6 -15 8 -3 16 16 10 39
-4 27 -16z m1156 -3 c19 -12 25 -21 18 -26 -13 -8 -61 20 -61 35 0 15 12 12
43 -9z m-1583 -6 c0 -16 -35 -21 -44 -6 -8 12 4 21 26 21 10 0 18 -7 18 -15z
m1250 -10 c15 -9 12 -35 -4 -35 -16 0 -66 38 -66 50 0 8 49 -2 70 -15z m-1075
-5 c0 -7 -6 -15 -12 -17 -8 -3 -13 4 -13 17 0 13 5 20 13 18 6 -3 12 -11 12
-18z m551 -9 c-4 -6 -14 -11 -22 -11 -12 0 -13 4 -3 21 7 14 14 18 21 11 6 -6
7 -15 4 -21z m1004 -1 l21 -30 -21 0 c-17 0 -40 32 -40 56 0 14 22 0 40 -26z
m-1435 0 c-3 -5 -13 -10 -21 -10 -8 0 -14 5 -14 10 0 6 9 10 21 10 11 0 17 -4
14 -10z m660 -1 c11 -17 -1 -21 -15 -4 -8 9 -8 15 -2 15 6 0 14 -5 17 -11z
m421 1 c15 -6 24 -13 21 -16 -8 -9 -67 6 -67 17 0 12 12 11 46 -1z m-2252 -9
c10 -15 7 -675 -3 -715 -11 -43 -24 -56 -60 -56 -23 0 -23 0 -17 93 3 50 8
160 11 242 8 202 24 390 35 420 10 25 24 32 34 16z m1262 -18 c-8 -8 -36 5
-36 17 0 7 6 7 21 0 11 -7 18 -14 15 -17z m209 17 c18 -8 17 -9 -7 -9 -16 -1
-28 4 -28 9 0 12 8 12 35 0z m205 -20 c-6 -12 -14 -19 -17 -17 -2 3 1 15 7 27
6 12 14 19 17 17 2 -3 -1 -15 -7 -27z m721 11 c13 -11 22 -22 19 -25 -8 -7
-53 17 -58 32 -6 18 12 15 39 -7z m368 -35 c10 -12 10 -16 2 -16 -28 0 -70 32
-71 53 0 11 54 -18 69 -37z m-219 -4 c-15 -5 -41 18 -34 30 3 5 15 1 26 -9 11
-10 15 -19 8 -21z m-644 1 c-7 -7 -26 7 -26 19 0 6 6 6 15 -2 9 -7 13 -15 11
-17z m282 -8 c-12 -27 -28 -24 -28 6 0 12 7 19 20 19 17 0 18 -3 8 -25z m165
-13 c24 -21 21 -35 -5 -27 -27 8 -50 34 -42 47 6 9 19 3 47 -20z m-563 3 c7
-8 8 -15 2 -15 -5 0 -15 7 -22 15 -7 8 -8 15 -2 15 5 0 15 -7 22 -15z m910
-11 c13 -32 13 -34 -3 -34 -24 0 -51 26 -44 44 10 24 36 19 47 -10z m-1783 -9
c194 -14 505 -101 697 -194 326 -159 580 -427 760 -802 133 -276 196 -613 196
-1051 0 -159 -2 -188 -15 -188 -8 0 -19 -9 -25 -19 -11 -22 -35 -210 -45 -368
l-8 -103 -41 -34 c-22 -18 -162 -156 -311 -306 -254 -256 -389 -379 -467 -424
l-33 -20 36 45 c19 24 61 76 93 116 32 40 89 96 127 124 94 70 157 143 211
247 96 181 113 303 112 792 -2 614 -49 920 -183 1195 -142 289 -349 534 -581
686 -84 56 -271 153 -370 193 -68 28 -271 80 -355 92 -27 3 -54 9 -60 13 -11
6 123 18 165 14 14 -1 57 -5 97 -8z m1088 -23 c-6 -7 -35 18 -35 31 0 5 9 2
20 -8 11 -10 18 -20 15 -23z m480 18 c18 -19 17 -20 -2 -20 -22 0 -47 23 -36
33 10 11 19 8 38 -13z m-631 -15 c3 -8 1 -15 -4 -15 -6 0 -10 7 -10 15 0 8 2
15 4 15 2 0 6 -7 10 -15z m399 -4 c20 -8 46 -51 30 -51 -13 0 -44 23 -53 40
-12 23 -11 24 23 11z m577 -33 c0 -4 -11 -8 -25 -8 -28 0 -30 3 -14 32 11 21
12 21 25 3 8 -10 14 -22 14 -27z m-1095 22 c3 -6 -5 -10 -19 -10 -14 0 -28 5
-31 10 -3 6 5 10 19 10 14 0 28 -4 31 -10z m681 -14 c10 -8 16 -17 12 -21 -10
-10 -45 4 -52 20 -7 19 14 19 40 1z m-338 -18 c19 -19 14 -30 -8 -18 -11 6
-20 15 -20 20 0 14 14 12 28 -2z m693 -16 c10 -25 1 -28 -26 -9 -10 8 -15 19
-11 26 11 17 28 9 37 -17z m-411 -37 c19 -23 4 -30 -25 -11 -30 20 -36 53 -7
37 10 -5 25 -17 32 -26z m528 1 c12 -27 7 -37 -14 -29 -15 5 -20 53 -6 53 5 0
14 -11 20 -24z m-398 -16 c0 -10 -4 -22 -10 -25 -6 -4 -10 7 -10 25 0 18 4 29
10 25 6 -3 10 -15 10 -25z m208 18 c19 -19 14 -30 -8 -18 -11 6 -20 15 -20 20
0 14 14 12 28 -2z m116 -37 c16 -17 16 -19 0 -25 -18 -7 -34 8 -34 32 0 18 14
15 34 -7z m-390 -34 c13 -20 5 -30 -18 -21 -9 3 -16 15 -16 26 0 22 18 20 34
-5z m140 -3 c20 -20 20 -24 -1 -24 -26 0 -47 16 -39 29 10 15 22 14 40 -5z
m374 -23 c3 -30 2 -32 -17 -21 -20 10 -28 40 -14 54 14 13 28 -1 31 -33z
m-188 14 c21 -25 1 -31 -22 -7 -18 18 -19 22 -6 22 8 0 21 -7 28 -15z m-946
-21 c5 -14 4 -15 -9 -4 -17 14 -19 20 -6 20 5 0 12 -7 15 -16z m885 -24 c5
-16 7 -30 4 -30 -12 0 -43 33 -43 47 0 25 28 13 39 -17z m191 3 c0 -10 -4 -24
-9 -32 -7 -10 -12 -8 -24 10 -19 26 -14 39 14 39 11 0 19 -7 19 -17z m-999
-23 c17 -10 27 -40 13 -40 -16 0 -44 23 -44 35 0 18 5 18 31 5z m920 -11 c16
-8 18 -13 9 -24 -15 -17 -37 -9 -43 16 -6 21 5 24 34 8z m183 -11 c9 -34 8
-38 -9 -38 -10 0 -15 10 -15 30 0 35 15 40 24 8z m-60 -24 c12 -31 6 -44 -19
-44 -40 0 -34 54 6 59 4 1 10 -6 13 -15z m-960 -23 c4 -5 3 -17 0 -26 -6 -15
-8 -14 -25 1 -11 9 -19 21 -19 26 0 11 37 10 44 -1z m876 -26 c10 -12 10 -18
0 -30 -19 -23 -30 -18 -30 15 0 33 11 38 30 15z m186 -11 c-3 -9 -6 -22 -6
-30 0 -20 -13 -17 -28 6 -15 25 -8 40 20 40 14 0 18 -5 14 -16z m-1006 -35 c0
-5 -7 -9 -15 -9 -9 0 -15 9 -15 21 0 18 2 19 15 9 8 -7 15 -16 15 -21z m940 2
c0 -34 -12 -45 -39 -36 -32 10 -33 33 -3 49 38 21 42 20 42 -13z m-187 -3 c8
-28 2 -34 -17 -19 -8 7 -12 19 -9 27 8 21 20 17 26 -8z m-698 -58 c-11 -17
-23 -1 -18 21 5 19 7 19 15 5 5 -9 6 -21 3 -26z m805 -1 c0 -10 -4 -19 -10
-19 -5 0 -10 12 -10 26 0 14 4 23 10 19 6 -3 10 -15 10 -26z m184 -10 c-10
-16 -24 -9 -24 12 0 18 2 19 15 9 8 -7 12 -16 9 -21z m-254 -25 c0 -31 -23
-28 -28 4 -2 15 2 22 12 22 11 0 16 -9 16 -26z m174 -21 c-25 -18 -45 -17 -37
3 7 20 46 36 52 21 2 -6 -4 -16 -15 -24z m120 -15 c6 -31 -7 -51 -29 -45 -15
5 -18 46 -5 63 19 21 27 17 34 -18z m-184 -20 c0 -6 -7 -5 -15 2 -8 7 -15 17
-15 22 0 6 7 5 15 -2 8 -7 15 -17 15 -22z m108 -25 c3 -23 -22 -53 -45 -53
-12 0 -14 7 -9 32 10 49 48 64 54 21z m-1368 -7 c0 -16 29 -41 80 -69 53 -29
26 -31 -47 -3 -37 14 -87 30 -110 36 -25 6 -43 17 -43 25 0 16 20 22 78 24 30
1 42 -3 42 -13z m1459 -67 c-17 -33 -36 -8 -20 28 11 24 14 26 22 10 7 -11 6
-24 -2 -38z m558 35 c4 -13 -23 -44 -38 -44 -11 0 -12 43 -2 54 10 10 36 3 40
-10z m-750 -16 c-3 -8 -6 -5 -6 6 -1 11 2 17 5 13 3 -3 4 -12 1 -19z m1013
-24 c0 -14 -6 -24 -14 -24 -15 0 -30 45 -20 61 10 16 34 -10 34 -37z m-160 11
c0 -19 -20 -28 -52 -23 -22 3 -22 4 7 20 38 21 45 22 45 3z m-2170 -27 c19 -6
78 -30 131 -55 78 -36 101 -52 115 -79 10 -18 15 -36 12 -39 -9 -9 -87 33
-127 68 -42 36 -117 70 -213 97 -39 11 -74 22 -77 26 -8 9 117 -5 159 -18z
m1441 -10 c8 -33 -5 -36 -39 -12 -19 13 -21 19 -11 30 18 22 42 13 50 -18z
m552 16 c9 -9 -3 -34 -17 -34 -6 0 -18 5 -26 10 -13 9 -13 11 0 20 17 11 34
13 43 4z m252 -33 c-8 -17 -18 -31 -21 -31 -10 0 7 54 19 62 19 11 19 2 2 -31z
m-154 -3 c-18 -48 -72 -48 -56 1 4 15 15 21 35 21 26 0 28 -3 21 -22z m-2126
-27 c28 -10 64 -25 80 -34 l30 -17 -40 6 c-66 10 -205 54 -205 65 0 13 67 3
135 -20z m1385 14 c7 -9 10 -18 7 -21 -10 -11 -37 5 -37 21 0 19 14 19 30 0z
m190 -5 c0 -16 -7 -20 -30 -20 -28 0 -30 2 -20 20 6 11 20 20 30 20 13 0 20
-7 20 -20z m360 -1 c14 -24 13 -25 -23 -34 -29 -8 -34 3 -17 36 14 25 27 24
40 -2z m293 0 c7 -25 -8 -69 -23 -69 -5 0 -10 13 -10 29 0 55 22 82 33 40z
m-2610 -17 c9 -10 23 -36 30 -57 18 -51 29 -190 19 -235 -7 -30 -10 -17 -22
80 -7 63 -17 124 -21 135 -8 19 -8 19 -15 -5 l-8 -25 -7 25 c-10 36 -10 100
-1 100 5 0 16 -8 25 -18z m2734 -14 c-3 -7 -5 -2 -5 12 0 14 2 19 5 13 2 -7 2
-19 0 -25z m-877 -8 c-6 -12 -14 -19 -17 -17 -2 3 1 15 7 27 6 12 14 19 17 17
2 -3 -1 -15 -7 -27z m565 0 c-15 -29 -45 -42 -45 -19 0 23 22 49 41 49 19 0
19 -2 4 -30z m-2143 -9 c105 -27 232 -84 294 -132 28 -22 71 -46 95 -54 24 -9
75 -38 112 -66 52 -38 74 -61 89 -96 17 -39 18 -50 8 -67 -11 -17 -9 -22 9
-37 27 -22 27 -49 1 -49 -18 0 -17 -4 13 -60 26 -49 29 -62 18 -69 -10 -7 -12
-21 -7 -59 4 -32 3 -51 -4 -54 -7 -2 -1 -28 15 -71 29 -77 32 -117 10 -117
-15 0 -16 -5 -19 -134 -1 -16 -6 -31 -11 -33 -6 -2 -46 51 -90 117 -75 114
-81 120 -94 101 -20 -31 -36 -26 -76 24 -32 38 -41 43 -65 39 -32 -7 -40 4
-69 89 -16 46 -22 52 -62 66 -68 24 -76 31 -53 48 18 13 17 15 -14 39 -31 25
-61 73 -76 122 -7 20 -4 22 37 22 31 0 49 -6 62 -20 16 -17 185 -80 217 -80 6
0 -8 14 -30 30 -44 32 -52 47 -27 56 22 9 18 27 -12 57 -40 38 -110 66 -217
86 -52 10 -99 22 -105 25 -18 11 -13 32 11 43 20 9 18 11 -25 21 -26 7 -47 17
-47 24 0 14 110 5 188 -16 45 -11 52 -11 40 0 -7 7 -60 25 -117 39 -114 28
-145 41 -136 56 7 11 17 9 187 -38 153 -41 195 -39 83 4 -74 29 -153 50 -264
70 -25 4 -46 14 -49 22 -7 21 117 8 258 -28 63 -16 117 -27 119 -25 14 13
-189 76 -320 99 -46 8 -88 20 -93 26 -16 17 121 4 216 -20z m1968 -1 c-6 -12
-21 -25 -34 -29 -12 -5 -28 -16 -35 -25 -27 -33 -56 -6 -33 31 9 15 70 42 95
43 15 0 16 -3 7 -20z m274 -2 c-13 -46 -23 -55 -24 -22 0 31 6 44 22 44 5 0 6
-10 2 -22z m-548 -3 c6 -15 -11 -45 -26 -45 -10 0 -18 31 -13 48 6 17 32 15
39 -3z m714 -4 c-12 -23 -29 -35 -37 -27 -7 7 26 46 39 46 5 0 4 -9 -2 -19z
m-340 -10 c0 -20 -13 -41 -25 -41 -21 0 -28 19 -15 35 14 17 40 20 40 6z m120
-29 c0 -21 -34 -53 -53 -50 -30 4 -28 30 3 45 28 14 50 17 50 5z m-599 -35
c-8 -8 -11 -7 -11 4 0 9 3 19 7 23 4 4 9 2 11 -4 3 -7 -1 -17 -7 -23z m240 17
c10 -13 10 -17 -2 -25 -17 -11 -72 -12 -66 -1 2 4 7 15 10 25 8 21 40 22 58 1z
m489 -14 c-6 -12 -14 -19 -17 -17 -2 3 1 15 7 27 6 12 14 19 17 17 2 -3 -1
-15 -7 -27z m-319 4 c10 -13 10 -17 -2 -25 -23 -14 -39 -10 -39 9 0 34 20 42
41 16z m399 -49 c-6 -15 -13 -25 -17 -22 -3 4 0 21 8 38 16 39 24 24 9 -16z
m-476 6 c3 -5 -5 -11 -19 -13 -21 -4 -25 -1 -25 19 0 20 3 22 19 13 11 -5 22
-14 25 -19z m166 -1 c0 -23 -4 -30 -20 -30 -22 0 -25 12 -10 41 16 28 30 23
30 -11z m159 16 c14 -16 4 -46 -15 -46 -9 0 -14 11 -14 30 0 32 11 38 29 16z
m-619 -54 c0 -10 -5 -10 -20 -2 -11 6 -20 17 -20 25 0 13 3 13 20 3 11 -7 20
-19 20 -26z m228 16 c-3 -23 -28 -34 -53 -24 -18 7 -9 33 13 39 36 10 43 7 40
-15z m332 -5 c0 -35 -14 -58 -29 -49 -14 9 -14 17 -1 50 13 34 30 33 30 -1z
m-183 -30 c-4 -17 -4 -17 -12 0 -4 9 -4 25 0 35 8 16 8 16 12 0 3 -10 3 -26 0
-35z m323 25 c0 -7 -5 -20 -10 -28 -8 -12 -10 -9 -10 13 0 15 5 27 10 27 6 0
10 -6 10 -12z m-385 -19 c11 -16 -4 -59 -20 -59 -15 0 -20 26 -9 54 7 18 20
21 29 5z m189 -25 c10 -27 -12 -56 -42 -52 -30 3 -41 30 -22 53 16 20 56 19
64 -1z m274 -14 c-7 -11 -19 -20 -26 -20 -10 0 -10 5 -2 20 6 11 17 20 25 20
13 0 13 -3 3 -20z m-523 -9 c5 -9 -31 -41 -47 -41 -10 0 -11 34 -1 43 10 10
41 8 48 -2z m-1987 -138 c4 -88 3 -105 -9 -101 -18 6 -26 46 -28 128 -2 157
28 133 37 -27z m2128 112 c18 -27 13 -55 -10 -55 -16 0 -26 21 -26 56 0 31 15
31 36 -1z m-233 -15 c3 -11 2 -20 -3 -20 -8 0 -20 24 -20 41 0 17 17 1 23 -21z
m397 -5 c-17 -21 -30 -19 -30 4 0 11 8 21 18 23 22 5 27 -8 12 -27z m150 -17
c0 -27 -27 -22 -34 7 -9 36 3 53 21 30 7 -11 13 -27 13 -37z m-3724 -24 c-8
-31 -36 -32 -36 -1 0 12 8 34 18 47 l17 25 3 -24 c2 -12 1 -34 -2 -47z m3354
30 c0 -3 -5 -15 -11 -26 -9 -17 -13 -18 -20 -7 -15 23 -10 39 11 39 11 0 20
-3 20 -6z m148 -41 c-18 -22 -28 -14 -16 12 8 18 14 22 19 13 4 -7 3 -18 -3
-25z m133 -16 c-8 -8 -11 -4 -11 14 0 33 14 47 18 19 2 -12 -1 -27 -7 -33z
m-357 28 c3 -8 -2 -21 -10 -30 -30 -29 -44 -13 -24 26 13 23 26 25 34 4z
m-3364 -14 c0 -23 -19 -31 -71 -31 -74 0 -32 47 44 49 20 1 27 -4 27 -18z
m3280 -27 c0 -31 -23 -28 -28 4 -2 15 2 22 12 22 11 0 16 -9 16 -26z m240 6
c-12 -22 -40 -27 -40 -7 0 19 10 27 32 27 16 0 17 -3 8 -20z m150 7 c0 -18
-27 -53 -34 -46 -9 9 11 59 24 59 5 0 10 -6 10 -13z m127 -39 c-3 -7 -5 -2 -5
12 0 14 2 19 5 13 2 -7 2 -19 0 -25z m-337 13 c0 -5 -7 -17 -16 -26 -19 -19
-38 -7 -28 18 6 18 44 24 44 8z m144 -18 c-4 -16 -13 -35 -20 -43 -12 -12 -14
-11 -14 9 0 27 17 61 31 61 5 0 7 -12 3 -27z m-2172 -5 c29 -52 112 -277 105
-284 -10 -11 -28 7 -58 61 -17 30 -39 57 -49 60 -23 7 -30 34 -30 118 0 69 10
83 32 45z m1948 -7 c0 -11 -39 -41 -52 -41 -10 0 -11 34 -1 43 10 11 53 8 53
-2z m144 -7 c11 -29 7 -64 -9 -64 -11 0 -15 11 -15 40 0 40 13 53 24 24z m214
-23 c3 -24 0 -32 -10 -29 -7 3 -14 19 -16 37 -3 24 0 32 10 29 7 -3 14 -19 16
-37z m-3777 2 c11 -12 14 -50 13 -148 -1 -154 -7 -185 -33 -185 -28 0 -32 20
-32 164 0 164 15 214 52 169z m3315 -30 c-11 -11 -19 6 -11 24 8 17 8 17 12 0
3 -10 2 -21 -1 -24z m182 -10 c-3 -42 -21 -51 -26 -15 -4 29 4 52 18 52 7 0
10 -15 8 -37z m211 25 c-1 -7 -5 -24 -9 -38 -7 -22 -8 -21 -9 13 -1 20 4 37 9
37 6 0 10 -6 9 -12z m-75 -50 c-10 -18 -19 -28 -21 -21 -5 15 15 53 28 53 5 0
2 -15 -7 -32z m-212 -25 l-10 -28 -11 29 c-9 23 -9 31 1 37 21 13 31 -7 20
-38z m293 -24 c8 -25 1 -34 -20 -26 -19 8 -20 47 -1 47 8 0 18 -9 21 -21z
m-219 -57 c-13 -12 -17 8 -10 40 l9 33 3 -33 c2 -19 1 -36 -2 -40z m-78 -11
c3 -24 0 -32 -10 -29 -7 3 -14 19 -16 37 -3 24 0 32 10 29 7 -3 14 -19 16 -37z
m75 -51 c-3 -11 -7 -20 -9 -20 -2 0 -4 9 -4 20 0 11 4 20 9 20 5 0 7 -9 4 -20z
m-16 -97 c-3 -10 -5 -4 -5 12 0 17 2 24 5 18 2 -7 2 -21 0 -30z m-71 -30 c-11
-11 -19 6 -11 24 8 17 8 17 12 0 3 -10 2 -21 -1 -24z m-3386 -203 c12 -12 20
-33 20 -54 0 -42 -21 -52 -80 -36 l-40 11 1 49 2 50 39 0 c25 0 45 -7 58 -20z
m72 -166 c3 -3 1 -18 -5 -34 l-11 -30 -71 6 c-77 7 -105 17 -105 39 0 7 8 16
18 18 25 7 168 8 174 1z m-72 -254 c22 -42 33 -256 27 -565 -6 -315 -18 -463
-43 -523 -11 -28 -17 -32 -36 -27 -47 14 -49 25 -22 105 21 60 28 100 32 200
4 121 -13 610 -27 758 l-7 72 33 0 c22 0 36 -6 43 -20z m3059 -342 c32 -161
140 -624 241 -1033 103 -418 180 -755 180 -791 0 -12 -5 -11 -28 6 -26 20 -30
20 -71 5 -55 -19 -75 -19 -91 1 -8 8 -28 79 -46 157 -18 78 -33 137 -33 130
-1 -6 8 -71 19 -145 11 -73 20 -140 20 -148 -1 -22 -48 38 -61 78 -8 26 -16
32 -38 32 -16 0 -40 9 -55 21 -32 25 -43 19 -52 -27 -8 -42 -34 -58 -119 -73
-168 -30 -344 -35 -1155 -34 -479 0 -804 -3 -775 -8 67 -11 602 -26 1605 -44
2295 -42 2468 -46 2500 -56 21 -6 17 -7 -18 -8 -27 -1 -53 -8 -68 -20 -13 -10
-57 -27 -96 -37 -82 -20 -86 -17 64 -49 48 -11 75 -21 71 -27 -14 -24 389 12
424 37 17 13 17 15 1 43 -19 32 -24 72 -9 72 4 0 23 -10 42 -23 61 -41 101
-133 215 -497 35 -113 64 -208 64 -212 0 -4 -12 -3 -27 3 -15 5 -209 17 -432
25 -407 14 -4273 128 -4771 140 -146 4 -282 9 -304 13 -21 3 85 5 235 4 151
-1 267 0 259 3 -8 2 -157 24 -330 47 -265 37 -326 48 -377 72 -94 42 -96 46
-91 169 5 114 21 156 61 157 22 0 22 0 1 9 -33 13 -39 83 -18 188 l4 22 348 0
349 0 23 25 c29 30 55 39 205 65 177 31 260 56 360 109 50 27 137 63 195 81
122 38 187 69 292 142 236 163 496 450 821 906 71 100 145 199 163 220 l33 37
1 -80 c0 -114 30 -301 110 -690 l69 -340 -4 210 c-2 116 -13 308 -25 428 -12
121 -20 223 -18 228 2 4 31 -132 65 -304 56 -284 62 -305 62 -239 1 78 -64
425 -120 641 -21 82 -29 137 -29 198 l0 85 67 69 c36 38 69 69 73 69 3 0 12
-28 19 -62z m-4089 -147 c-15 -28 -12 -61 5 -61 18 0 29 -21 45 -87 6 -29 18
-57 26 -64 8 -6 14 -21 14 -32 0 -11 7 -28 15 -37 8 -9 28 -61 45 -116 17 -54
39 -123 50 -152 11 -29 20 -61 20 -71 0 -9 11 -28 25 -41 14 -13 25 -29 25
-37 0 -7 6 -13 14 -13 7 0 21 -11 30 -25 11 -17 26 -25 44 -25 15 0 38 -7 51
-16 15 -11 33 -14 53 -10 17 3 36 2 42 -3 7 -6 30 -4 61 3 117 30 112 31 125
-22 7 -26 14 -112 17 -192 l5 -145 -26 28 c-14 15 -26 35 -26 43 0 8 -11 19
-25 24 -14 5 -25 16 -25 25 0 9 -11 20 -25 25 -15 6 -25 17 -25 30 0 15 -7 20
-25 20 -15 0 -25 6 -25 14 0 8 -10 18 -22 21 -13 4 -32 16 -43 26 -11 10 -40
22 -63 28 -43 9 -46 8 -127 -45 -83 -54 -105 -63 -105 -44 0 21 -42 8 -156
-50 -126 -64 -154 -71 -154 -42 0 13 27 33 91 68 50 27 98 57 107 67 16 18 15
18 -13 11 -17 -4 -71 -25 -122 -46 -91 -38 -133 -47 -133 -28 0 5 30 25 68 44
37 19 76 41 87 50 20 15 20 15 0 16 -10 0 -54 -16 -96 -36 -74 -35 -116 -39
-107 -11 3 6 36 29 74 50 73 40 108 67 86 67 -7 0 -53 -13 -104 -30 -135 -43
-132 -27 9 61 105 66 88 79 -27 20 -82 -43 -129 -51 -149 -27 -14 17 -13 18
77 54 67 28 142 76 142 92 0 14 -70 -10 -169 -56 -51 -24 -96 -44 -98 -44 -2
0 -3 12 -1 28 3 27 33 46 246 159 17 9 32 21 32 26 0 23 -163 -41 -243 -95
-66 -45 -102 -48 -102 -8 0 21 11 29 78 56 79 33 197 103 197 117 0 13 -49 -3
-172 -54 -122 -51 -172 -63 -147 -33 7 9 44 31 82 51 116 58 295 183 263 183
-4 0 -90 -40 -192 -90 -101 -49 -189 -90 -194 -90 -20 0 -9 21 18 32 15 7 41
22 57 34 17 12 77 47 135 77 119 64 148 83 138 92 -3 4 -89 -36 -191 -89 -101
-53 -191 -96 -200 -96 -28 0 -19 27 16 53 17 13 75 47 127 75 94 50 170 105
160 115 -3 3 -76 -28 -162 -68 -176 -83 -208 -94 -208 -73 0 8 31 29 71 48 38
18 141 76 227 130 206 127 286 157 193 74 -48 -43 -62 -64 -42 -64 5 0 44 24
87 53 83 55 154 96 167 97 4 0 3 -9 -3 -19z m3928 -588 c4 -51 5 -93 2 -93 -9
0 -40 191 -39 235 l1 40 15 -45 c8 -25 18 -87 21 -137z m-1027 85 l44 -4 -67
-33 c-37 -18 -72 -30 -78 -26 -16 10 -12 34 12 67 18 27 23 29 33 15 6 -9 30
-17 56 -19z m-1943 -192 c15 -8 40 -28 56 -44 23 -24 28 -40 29 -77 0 -41 -5
-53 -42 -96 -38 -44 -46 -49 -84 -49 -91 0 -112 9 -138 56 -18 33 -24 60 -24
106 l0 62 54 28 c59 31 108 35 149 14z m2082 -195 c0 -17 -6 -31 -16 -35 -24
-9 -24 -9 -24 29 0 28 4 35 20 35 15 0 20 -7 20 -29z m1373 12 c8 -10 19 -30
22 -46 11 -41 21 -40 17 1 -1 21 2 43 7 51 14 21 41 5 48 -29 6 -34 19 -29 25
10 5 41 36 37 55 -7 l16 -38 8 33 c3 18 9 36 12 39 16 15 38 -12 57 -69 l21
-63 -5 68 c-5 65 -5 67 19 67 14 0 32 -11 44 -27 20 -27 20 -27 21 -6 0 21 5
23 48 22 26 -1 56 0 67 2 13 3 24 -5 34 -26 15 -29 16 -29 19 -7 5 33 29 38
62 13 36 -26 40 -26 40 -1 0 13 7 20 19 20 23 0 46 -21 66 -61 21 -39 27 -37
19 6 -7 41 12 55 52 36 18 -8 29 -8 44 1 27 17 70 0 97 -40 l22 -33 3 38 c3
35 6 38 35 41 24 2 34 -2 43 -18 l11 -21 19 23 18 23 26 -24 c14 -14 26 -30
26 -37 0 -7 4 -16 10 -19 6 -4 7 5 4 23 -8 37 13 54 52 43 16 -4 46 -6 66 -3
33 4 39 1 56 -27 20 -33 32 -31 32 5 0 62 59 19 81 -59 17 -60 28 -66 22 -13
-6 50 2 96 17 96 5 0 21 -12 35 -27 19 -22 25 -24 25 -11 0 27 18 31 49 9 36
-26 39 -26 43 1 5 38 28 32 45 -11 18 -45 33 -45 33 0 0 36 12 37 38 4 25 -32
28 -31 36 5 11 55 29 34 81 -95 7 -18 9 -16 18 13 11 36 21 41 32 15 73 -189
250 -741 240 -751 -12 -13 -121 29 -142 54 l-21 27 -4 -29 c-2 -23 -8 -29 -28
-29 -16 0 -28 8 -35 23 -5 12 -12 22 -15 22 -3 0 -10 -10 -15 -22 -9 -22 -16
-23 -103 -23 -112 0 -120 6 -153 119 -29 100 -29 99 -34 94 -3 -3 2 -49 11
-102 20 -115 14 -129 -41 -103 -20 10 -37 12 -40 7 -9 -15 -91 -12 -128 4 -38
16 -61 40 -75 81 -10 29 -10 28 -11 -17 -1 -38 -5 -50 -23 -59 -25 -13 -122
-6 -143 11 -9 8 -14 7 -19 -5 -8 -23 -59 -19 -84 8 -11 12 -24 36 -29 52 -7
27 -8 25 -13 -25 l-5 -55 -95 -3 c-114 -4 -164 9 -184 46 l-15 27 -1 -26 c0
-44 -20 -51 -119 -48 -99 4 -117 13 -137 72 l-12 32 -7 -41 c-11 -66 -16 -70
-67 -55 -24 7 -49 15 -56 17 -7 2 -21 23 -32 46 l-19 43 0 -47 c-2 -81 -38
-74 -66 13 -15 45 -18 48 -30 32 -13 -17 -14 -16 -24 10 -18 47 -57 208 -111
462 -28 132 -53 246 -55 253 -6 18 9 15 28 -5z m-4043 -28 c0 -8 19 -24 43
-36 46 -23 241 -218 288 -288 29 -44 38 -94 19 -106 -15 -9 -12 -42 5 -49 10
-4 13 -14 9 -36 -4 -16 -2 -36 4 -43 6 -7 10 -36 9 -65 -2 -48 -5 -55 -34 -73
-20 -13 -34 -16 -38 -9 -3 5 -23 10 -44 10 -21 0 -41 3 -45 7 -4 4 -24 6 -44
4 l-37 -3 25 24 c41 38 -13 32 -132 -17 -13 -5 -18 -2 -18 8 0 8 23 29 50 47
28 18 50 36 50 41 0 12 -1 11 -41 -5 -62 -25 -79 -28 -79 -14 0 7 21 26 48 42
57 35 42 46 -23 16 -26 -12 -61 -20 -78 -18 -32 3 -32 3 26 36 57 34 77 60 35
48 -49 -14 -86 -18 -92 -8 -3 5 21 26 53 45 111 69 100 96 -13 32 -65 -36
-101 -45 -94 -22 2 6 25 23 51 37 26 14 47 29 47 33 0 5 -25 5 -55 2 -30 -4
-55 -5 -55 -2 0 3 24 20 53 38 28 18 54 34 56 36 2 2 1 6 -3 10 -3 4 -38 -9
-76 -27 -53 -26 -73 -31 -82 -22 -8 8 -3 19 22 42 35 32 35 49 2 31 -29 -15
-52 -14 -52 4 0 8 5 15 10 15 24 0 7 30 -20 37 l-31 8 92 70 c50 39 103 82
118 96 38 38 71 49 71 24z m1970 -7 c0 -19 -12 -33 -37 -47 -28 -14 -33 -14
-33 3 0 14 47 55 63 56 4 0 7 -6 7 -12z m-422 -20 c-2 -15 -11 -24 -25 -26
-27 -4 -29 5 -6 30 22 24 35 23 31 -4z m-884 -95 c-2 -21 -9 -110 -14 -198
-23 -338 -63 -723 -80 -760 -7 -16 -30 -305 -30 -384 0 -12 -4 -21 -9 -21 -4
0 -14 78 -22 173 -14 187 -20 1091 -6 1139 6 23 17 30 65 44 31 9 61 23 65 30
17 29 35 15 31 -23z m-964 3 c0 -23 -32 -53 -84 -80 -50 -27 -81 -32 -90 -17
-10 15 18 40 84 76 71 38 90 42 90 21z m-45 -140 l-47 -41 22 -20 c14 -13 33
-18 56 -16 26 2 34 -1 34 -14 0 -8 -7 -18 -15 -21 -22 -9 -18 -30 10 -51 25
-18 25 -18 5 -31 -19 -11 -24 -7 -64 55 -24 38 -53 77 -65 87 -30 28 -27 64 7
78 40 16 86 25 96 20 5 -3 -12 -23 -39 -46z m2124 10 c6 -7 22 -11 36 -8 34 6
32 -14 -3 -32 -16 -8 -96 -37 -178 -65 -158 -53 -386 -103 -546 -120 -117 -13
-398 -14 -398 -2 0 10 80 20 165 22 57 1 59 1 31 13 -39 18 -27 21 156 46 290
39 533 92 638 139 54 23 84 26 99 7z m-1939 -286 c-8 -5 -28 -10 -45 -10 -23
0 -27 3 -15 10 8 5 29 10 45 10 23 0 27 -3 15 -10z m-1090 -31 c0 -34 -71 -89
-116 -89 -14 0 -15 2 -3 17 17 20 101 82 112 83 4 0 7 -5 7 -11z m835 -43
c-10 -14 -24 -26 -33 -26 -12 0 -12 4 4 23 38 44 57 46 29 3z m-820 -43 c-21
-18 -43 -33 -48 -33 -13 0 20 51 52 77 23 21 26 21 30 6 2 -11 -11 -30 -34
-50z m1960 16 c-21 -23 -16 -31 35 -54 52 -23 51 -35 -2 -35 -66 0 -93 19 -92
62 2 60 8 69 44 56 29 -10 30 -11 15 -29z m-1865 -8 c-11 -21 -29 -36 -35 -29
-3 2 2 14 11 26 19 28 39 30 24 3z m1050 4 c10 -12 9 -16 -4 -21 -18 -7 -49
13 -40 27 8 14 30 11 44 -6z m-166 -54 c-9 -22 -20 -41 -25 -41 -13 0 -11 6
12 51 26 52 35 45 13 -10z m-844 10 c-12 -23 -58 -61 -73 -61 -12 0 64 80 76
80 4 0 3 -9 -3 -19z m598 -10 c9 -5 25 -12 35 -15 11 -3 21 -15 24 -26 3 -11
13 -20 23 -20 10 0 20 -7 24 -15 3 -8 14 -15 25 -15 37 0 35 -23 -5 -58 -50
-44 -126 -82 -161 -82 -27 1 -27 1 9 18 29 13 91 72 76 72 -2 0 -28 -7 -58
-15 -68 -18 -80 -18 -56 0 26 19 12 37 -20 25 -48 -19 -99 -6 -64 15 19 12 10
25 -17 26 l-28 0 28 22 c30 24 127 77 140 77 4 0 15 -4 25 -9z m-538 -6 c0
-14 -32 -65 -40 -65 -13 0 -13 6 5 40 13 26 35 41 35 25z m818 -42 c-10 -38
-34 -73 -49 -73 -5 0 3 25 18 55 31 64 46 72 31 18z m207 -12 l40 -19 -56 -1
c-40 -1 -58 3 -62 13 -12 31 20 34 78 7z m-1035 -85 c0 -8 -15 -16 -37 -19
-47 -8 -52 -3 -16 17 35 19 53 20 53 2z m177 3 c37 -14 83 -58 83 -80 0 -19
-36 -59 -53 -59 -5 0 -11 8 -14 18 -3 14 -11 18 -29 14 -23 -4 -24 -2 -18 22
8 32 1 32 -43 5 -24 -15 -38 -18 -45 -11 -14 14 20 73 53 89 30 16 31 16 66 2z
m604 -19 c6 0 19 5 30 10 28 15 25 -10 -5 -43 -22 -24 -27 -25 -65 -15 -22 6
-41 14 -41 18 0 5 15 21 33 36 27 22 33 24 35 10 2 -9 8 -16 13 -16z m6329
-110 c0 -14 -28 -1 -34 16 -4 12 -2 12 14 4 11 -6 20 -15 20 -20z m-92 8 c29
-29 10 -34 -53 -17 -34 10 -37 13 -20 20 30 12 60 10 73 -3z m-1413 -746 c50
-2 147 -3 216 -2 146 2 237 -12 260 -39 15 -18 16 -18 26 10 11 28 13 29 81
29 l70 0 17 -42 c9 -23 21 -80 27 -127 22 -185 25 -189 24 -31 0 148 8 200 33
200 15 0 31 -51 37 -121 7 -72 24 -78 24 -8 0 63 11 101 25 89 9 -8 14 -5 18
10 7 27 20 25 60 -10 l34 -29 23 31 23 31 86 -5 c47 -3 112 -13 144 -23 55
-18 58 -18 70 -1 13 17 15 17 46 2 17 -10 35 -25 39 -34 5 -14 7 -12 12 8 5
21 12 25 50 28 92 6 102 4 130 -16 27 -20 28 -20 33 -2 7 29 51 34 151 21 50
-7 113 -13 140 -14 l49 -2 28 -113 c16 -63 46 -173 68 -245 81 -268 119 -405
151 -542 18 -77 56 -238 86 -357 30 -120 54 -221 54 -226 0 -31 -211 -44 -364
-22 -87 13 -125 35 -151 85 l-20 40 -3 -48 c-5 -72 -30 -82 -207 -81 -199 1
-267 26 -285 106 -6 29 -8 26 -14 -34 l-8 -66 -52 -1 c-28 0 -96 -2 -151 -4
-55 -2 -217 5 -359 16 -216 17 -263 18 -280 7 -14 -9 -69 -15 -158 -18 l-137
-5 -6 24 c-5 24 -141 692 -239 1179 -30 146 -57 289 -61 319 l-7 54 38 -9 c22
-4 80 -10 129 -12z m2318 -1197 c78 -239 87 -275 68 -275 -13 0 -66 141 -95
252 -24 93 -43 208 -33 198 3 -3 30 -81 60 -175z m-3921 -1722 c26 -30 39 -84
45 -180 5 -78 4 -93 -9 -93 -23 0 -49 35 -69 92 l-18 53 0 -48 c-1 -58 -15
-87 -41 -87 -19 0 -28 7 -55 45 -12 17 -16 18 -24 5 -6 -8 -13 -12 -16 -9 -11
12 -18 109 -7 121 6 8 7 31 3 61 l-8 47 44 0 c38 0 46 -4 63 -32 13 -22 20
-27 20 -15 0 17 33 57 48 57 5 0 16 -8 24 -17z m111 -12 c9 -9 22 -38 30 -66
l16 -50 0 51 c1 27 7 59 15 70 15 19 15 19 35 -1 25 -24 51 -134 51 -214 0
-53 0 -53 -22 -39 -13 8 -30 29 -38 46 -19 39 -30 41 -30 5 0 -37 -13 -56 -36
-51 -25 4 -39 37 -57 128 -31 154 -31 148 -3 143 14 -3 31 -13 39 -22z m662
-45 c8 -28 19 -80 25 -116 6 -36 13 -75 15 -87 5 -19 1 -23 -20 -23 -27 0 -75
39 -75 62 -1 7 -7 -2 -15 -21 -13 -29 -18 -32 -42 -26 -16 3 -36 14 -45 22
-17 15 -18 14 -18 -5 0 -27 -27 -35 -96 -26 -48 6 -58 11 -75 37 -21 36 -49
149 -49 201 0 79 52 44 80 -55 l19 -64 0 71 c1 95 27 115 84 66 15 -14 17 -13
17 6 0 17 6 22 25 22 32 0 64 -32 72 -70 8 -40 23 -38 23 3 0 18 7 43 16 55
21 31 40 15 59 -52z m88 57 c18 -21 43 -107 51 -179 8 -68 -5 -104 -39 -104
-14 0 -25 3 -25 6 0 10 -39 245 -45 272 -4 18 -1 22 18 22 13 0 31 -8 40 -17z
m131 -51 l14 -47 7 30 c17 71 59 96 88 54 l15 -21 7 21 c12 40 46 23 71 -34
l17 -40 9 39 c10 47 24 66 49 66 21 0 21 0 49 -166 24 -147 24 -134 -1 -134
-32 0 -59 19 -71 48 l-10 27 -10 -27 c-21 -60 -145 -59 -185 1 l-22 32 2 -26
c3 -36 -24 -55 -49 -34 -30 25 -46 81 -52 181 l-5 98 32 -11 c25 -9 34 -20 45
-57z m-664 39 c16 -30 50 -182 50 -222 0 -46 -26 -61 -52 -29 -25 31 -38 83
-45 183 -6 84 -5 87 15 87 12 0 26 -9 32 -19z m986 -376 c-35 -45 -93 -79
-210 -120 -211 -76 -236 -80 -503 -80 -133 0 -244 -3 -248 -7 -29 -29 375 -32
593 -4 79 10 145 16 148 14 2 -3 -38 -18 -88 -34 l-93 -29 -290 1 c-310 0
-328 3 -339 50 -13 50 3 55 153 48 75 -3 215 -1 311 4 159 10 185 14 283 46
117 39 176 67 251 121 27 20 51 33 54 31 3 -3 -7 -21 -22 -41z m428 -34 c-91
-89 -303 -275 -326 -287 -45 -23 -33 2 31 64 32 31 71 76 85 100 26 42 79 81
180 135 28 15 52 24 55 21 3 -2 -8 -18 -25 -33z m-204 11 c0 -4 -20 -31 -45
-59 -55 -63 -186 -163 -266 -204 -62 -31 -67 -37 -47 -57 15 -15 5 -24 -49
-45 -41 -16 -88 -15 -124 4 -8 4 -33 3 -55 -2 -89 -21 -479 -7 -610 22 -80 18
-66 27 24 15 42 -6 167 -11 277 -11 224 1 299 11 479 70 141 45 205 81 222
121 18 43 81 104 134 130 50 25 60 28 60 16z m333 -70 c-53 -61 -235 -220
-320 -278 -84 -59 -81 -34 4 33 43 34 141 120 218 191 143 132 186 156 98 54z
m-5283 58 c-30 -5 -102 -8 -160 -7 -100 0 -101 1 -35 7 39 4 111 7 160 7 82 0
85 -1 35 -7z m4154 -16 c66 -9 59 -28 -9 -21 -62 6 -109 26 -64 27 14 0 47 -3
73 -6z m1246 -10 c0 -34 -350 -358 -367 -340 -12 11 28 55 149 164 73 66 149
136 167 156 38 40 51 44 51 20z m-930 -6 c-14 -5 -72 -22 -130 -36 -118 -28
-302 -35 -505 -18 -98 9 -105 10 -65 17 25 4 135 8 245 9 188 1 274 7 370 29
22 5 56 9 75 9 33 1 34 0 10 -10z m-4445 -39 c-47 -8 -600 -38 -1085 -59 -118
-5 -231 -6 -250 -2 -24 6 30 12 175 20 116 7 253 18 305 23 84 10 574 25 815
26 81 1 85 0 40 -8z m930 -9 c57 -5 -1 -6 -158 -3 -136 3 -283 9 -325 14 -48
5 13 6 158 2 129 -3 276 -9 325 -13z m4105 -84 c-108 -102 -222 -196 -238
-196 -12 0 -9 7 9 26 31 34 226 205 258 227 50 34 34 3 -29 -57z m-6557 37
c-7 -2 -19 -2 -25 0 -7 3 -2 5 12 5 14 0 19 -2 13 -5z m1825 -10 c-65 -2 -171
-2 -235 0 -65 1 -12 3 117 3 129 0 182 -2 118 -3z m4370 -15 c-3 -7 -51 -30
-109 -51 -243 -90 -373 -108 -639 -88 -174 13 -360 46 -300 52 19 2 56 1 82
-3 147 -21 373 -30 475 -19 107 12 274 52 405 96 86 28 91 29 86 13z m-6903
-19 c149 -6 277 -16 285 -21 20 -12 -517 -1 -760 16 l-185 13 195 2 c107 1
317 -4 465 -10z m7539 -32 c-31 -38 -145 -137 -160 -137 -27 0 -1 31 84 100
86 69 111 82 76 37z m-5536 -12 c-3 -3 -126 -12 -274 -20 -490 -25 -584 -28
-584 -17 0 12 104 20 400 31 274 10 465 12 458 6z m1852 -15 c50 -7 35 -8 -65
-5 -71 3 -195 6 -275 7 -111 1 -132 3 -90 9 63 8 334 1 430 -11z m3743 -20
c-19 -31 -117 -110 -134 -110 -24 0 52 84 111 124 37 24 44 20 23 -14z m-2077
-6 c18 -15 17 -15 -15 -10 -18 3 -40 6 -48 6 -8 0 -11 5 -8 10 9 15 49 12 71
-6z m238 6 c-6 -6 -21 -6 -39 -1 -30 9 -30 9 10 10 25 1 36 -2 29 -9z m-5404
-10 c0 -11 -270 -12 -390 0 -53 5 -7 7 158 8 149 1 232 -2 232 -8z m2545 -7
c61 -3 100 -9 89 -13 -20 -8 -644 7 -653 15 -7 7 440 6 564 -2z m2480 -2 c-65
-27 -527 -40 -750 -22 l-90 8 70 3 c63 2 546 14 720 17 44 1 63 -1 50 -6z
m1550 -77 c-54 -26 -89 -31 -83 -12 2 6 24 17 49 23 72 20 87 15 34 -11z
m-1088 4 l28 -11 -47 -10 c-54 -10 -78 -5 -78 18 0 18 55 21 97 3z"/>
<path d="M4896 9349 c-3 -17 -6 -46 -6 -63 1 -44 18 -12 26 48 8 52 -10 65
-20 15z"/>
<path d="M4878 9170 c-12 -39 -10 -76 3 -63 6 6 9 28 7 49 -3 35 -4 36 -10 14z"/>
<path d="M5123 7905 c-9 -25 4 -29 17 -6 7 15 7 21 0 21 -6 0 -13 -7 -17 -15z"/>
<path d="M5279 7564 c-10 -11 -24 -41 -33 -67 -28 -85 -18 -111 34 -81 33 20
47 44 25 44 -22 0 -25 14 -14 54 6 20 9 44 7 53 -3 13 -5 12 -19 -3z"/>
<path d="M5920 6782 c0 -4 16 -45 36 -91 19 -45 42 -112 49 -149 19 -87 19
-196 1 -211 -9 -8 -15 -50 -19 -149 -5 -133 -19 -227 -40 -266 -9 -19 -10 -19
-23 -2 -11 16 -15 14 -38 -31 -14 -26 -35 -61 -46 -78 l-22 -30 7 50 c3 28 9
65 12 84 5 31 4 32 -15 22 -11 -6 -28 -33 -37 -61 -19 -57 -31 -63 -40 -20
-10 45 -22 45 -44 2 -17 -33 -24 -39 -44 -35 -19 4 -26 -1 -37 -26 -17 -41
-27 -47 -51 -25 -10 9 -19 12 -19 6 0 -7 -11 -9 -28 -6 -36 7 -60 -17 -37 -36
8 -7 15 -21 15 -31 0 -14 7 -19 29 -19 17 0 32 -4 35 -9 4 -5 20 -6 39 -1 64
16 158 22 172 10 30 -25 210 53 235 100 6 10 10 67 10 125 0 116 10 150 40
140 19 -6 20 -4 35 68 2 9 -3 30 -10 45 -8 16 -17 105 -23 227 -11 202 -26
279 -67 341 -17 26 -75 70 -75 56z"/>
<path d="M5380 6488 c0 -7 18 -30 39 -50 50 -46 55 -73 48 -231 -4 -89 -12
-144 -30 -202 -31 -102 -25 -122 21 -69 64 73 66 82 66 271 l1 172 -42 43
c-52 53 -103 86 -103 66z"/>
<path d="M6855 7550 c3 -47 10 -206 15 -354 6 -148 12 -272 15 -274 9 -10 5
543 -5 612 -16 107 -32 118 -25 16z"/>
<path d="M7570 6278 c2 -60 35 -249 73 -418 97 -436 95 -428 96 -384 2 105
-141 814 -165 814 -2 0 -4 -6 -4 -12z"/>
<path d="M7731 5898 c1 -13 4 -36 8 -53 5 -23 8 -26 13 -13 6 16 -8 88 -17 88
-3 0 -4 -10 -4 -22z"/>
<path d="M7864 5215 c9 -90 46 -318 53 -325 9 -9 -7 151 -28 270 -23 131 -35
158 -25 55z"/>
<path d="M7731 5035 c0 -38 4 -77 9 -85 12 -19 13 57 1 115 -8 36 -9 34 -10
-30z"/>
<path d="M8310 4602 c-14 -2 -39 -9 -55 -17 -17 -8 -69 -19 -117 -26 -48 -7
-85 -16 -83 -19 2 -4 62 -10 132 -13 70 -3 142 -11 158 -18 30 -12 30 -12 -35
-24 -61 -12 -51 -13 143 -14 137 -1 206 2 202 9 -3 6 -16 10 -29 10 -19 0 -22
5 -22 38 -1 45 7 51 71 53 l50 2 -65 8 c-69 8 -308 16 -350 11z"/>
<path d="M9036 4341 c5 -6 34 -11 64 -13 l55 -4 -35 -15 c-19 -9 -73 -22 -120
-30 l-85 -13 110 -13 c124 -15 207 -36 229 -58 19 -20 28 -19 58 4 22 18 59
29 183 57 29 6 29 7 -18 19 -27 7 -55 22 -63 33 -8 12 -31 26 -52 32 -47 13
-340 14 -326 1z m331 -67 c5 -15 -25 -26 -48 -19 -11 4 -19 13 -19 21 0 18 61
16 67 -2z"/>
<path d="M5076 4141 c-7 -11 11 -17 79 -25 48 -5 49 -5 20 8 -45 20 -92 29
-99 17z"/>
<path d="M8463 4073 c-29 -6 -29 -14 1 -40 13 -11 26 -27 28 -34 4 -11 39 -14
159 -16 115 -2 147 0 127 8 -18 7 -28 19 -30 37 -5 41 -38 52 -158 50 -58 0
-115 -3 -127 -5z"/>
<path d="M9740 4041 c-18 -7 -1 -9 60 -10 80 -1 155 -12 167 -25 11 -11 -20
-36 -46 -37 -48 -2 48 -17 162 -24 l108 -7 -12 26 c-15 31 -11 37 19 29 13 -3
22 -13 22 -25 0 -31 33 -17 51 22 l17 35 -29 6 c-49 11 -492 19 -519 10z"/>
<path d="M4449 5575 c-3 -2 -3 -20 -1 -40 3 -29 8 -35 27 -35 31 0 47 23 39
54 -5 20 -12 26 -33 26 -15 0 -30 -2 -32 -5z"/>
<path d="M3885 5300 c-3 -5 -2 -10 4 -10 5 0 13 5 16 10 3 6 2 10 -4 10 -5 0
-13 -4 -16 -10z"/>
<path d="M3915 5140 c-3 -5 3 -10 14 -10 12 0 21 5 21 10 0 6 -6 10 -14 10 -8
0 -18 -4 -21 -10z"/>
<path d="M4000 5020 c0 -13 11 -13 30 0 12 8 11 10 -7 10 -13 0 -23 -4 -23
-10z"/>
<path d="M10616 2770 c29 -223 111 -506 139 -478 4 3 -129 490 -140 513 -3 6
-2 -10 1 -35z"/>
<path d="M10565 2533 c10 -58 24 -106 35 -123 8 -13 10 -12 11 5 5 60 -21 155
-43 155 -5 0 -6 -17 -3 -37z"/>
<path d="M8996 2455 c3 -44 9 -84 15 -89 14 -15 10 83 -7 129 -13 39 -13 38
-8 -40z"/>
<path d="M10395 2403 c11 -94 17 -123 27 -123 15 0 4 87 -15 130 l-17 35 5
-42z"/>
<path d="M5793 10388 c-45 -15 -41 -26 13 -34 49 -7 71 4 61 30 -7 18 -27 19
-74 4z"/>
<path d="M3325 9496 c-9 -22 -21 -120 -30 -258 -19 -271 -28 -323 -61 -345
-23 -15 -23 -16 -7 -29 17 -13 17 -15 -5 -32 l-24 -18 24 -16 23 -16 -32 -12
c-43 -15 -42 -24 4 -36 52 -13 52 -31 1 -39 -24 -4 -47 -10 -52 -12 -12 -8 15
-23 42 -23 34 0 18 -17 -23 -24 -21 -4 -35 -13 -35 -21 0 -11 13 -15 53 -15
28 0 58 4 64 8 13 8 67 282 77 392 3 36 22 163 42 282 20 119 34 223 31 232
-4 11 -19 16 -42 16 -32 0 -38 -4 -50 -34z"/>
<path d="M8312 9298 c-14 -14 -16 -44 -2 -53 5 -3 14 -23 20 -43 14 -52 52
-97 75 -89 25 10 17 115 -11 130 -10 6 -30 23 -44 39 -20 22 -29 25 -38 16z"/>
<path d="M8400 9054 c0 -27 20 -54 35 -48 20 8 19 27 -3 47 -23 21 -32 21 -32
1z"/>
<path d="M8300 9027 c0 -8 49 -144 60 -169 22 -48 29 -31 14 34 -15 62 -51
138 -66 138 -4 0 -8 -1 -8 -3z"/>
<path d="M8462 8961 c-19 -11 -11 -45 11 -49 13 -3 17 3 17 27 0 32 -6 37 -28
22z"/>
<path d="M8530 8928 c0 -18 7 -46 15 -61 14 -26 23 -58 39 -129 8 -35 32 -36
40 -4 9 36 -10 150 -30 180 -15 24 -43 46 -58 46 -3 0 -6 -15 -6 -32z"/>
<path d="M8470 8836 c0 -17 5 -26 16 -26 10 0 14 7 12 22 -5 32 -28 35 -28 4z"/>
<path d="M2402 8748 c-47 -153 -67 -266 -97 -547 -13 -121 -20 -466 -8 -391 2
14 15 102 29 195 14 94 47 278 74 410 58 288 73 388 65 415 -13 42 -32 18 -63
-82z"/>
<path d="M8150 8820 c0 -5 5 -10 11 -10 5 0 7 5 4 10 -3 6 -8 10 -11 10 -2 0
-4 -4 -4 -10z"/>
<path d="M3660 8712 c-46 -19 -151 -81 -137 -82 4 0 60 13 125 29 64 16 134
33 155 38 62 13 48 28 -28 30 -48 2 -84 -3 -115 -15z"/>
<path d="M7806 8698 c-24 -34 -19 -44 9 -18 14 13 25 27 25 32 0 16 -19 8 -34
-14z"/>
<path d="M3840 8618 c-47 -5 -124 -20 -172 -34 -48 -14 -92 -23 -97 -20 -18
12 -112 -26 -170 -69 -67 -49 -83 -80 -23 -44 20 12 48 28 62 35 42 22 219 62
325 74 133 15 195 29 195 45 0 19 -26 22 -120 13z"/>
<path d="M8624 8596 c-10 -8 -16 -17 -13 -20 3 -4 17 2 30 13 27 23 13 28 -17
7z"/>
<path d="M8005 8510 c-3 -5 -1 -18 5 -29 5 -11 10 -33 10 -49 0 -32 28 -52 42
-30 11 19 10 48 -3 48 -7 0 -9 11 -6 29 4 21 2 31 -9 35 -22 8 -32 7 -39 -4z"/>
<path d="M3750 8445 c-199 -32 -335 -61 -367 -79 l-28 -15 25 -1 c30 0 384 54
455 70 94 21 125 31 125 40 0 15 -48 11 -210 -15z"/>
<path d="M1682 8321 c-45 -28 -95 -783 -73 -1121 7 -96 14 -183 17 -193 5 -15
10 -14 50 13 44 31 61 59 27 45 -45 -19 -52 -17 -60 11 -26 97 14 919 53 1092
15 69 19 148 6 156 -4 2 -13 1 -20 -3z"/>
<path d="M2920 8086 c-36 -12 -83 -32 -105 -44 l-40 -21 77 -1 c42 0 80 -4 83
-10 10 -16 54 -11 70 8 54 61 64 75 59 83 -10 16 -78 9 -144 -15z"/>
<path d="M2550 8012 c-9 -4 -35 -22 -58 -41 -40 -33 -42 -37 -42 -90 0 -32 -9
-79 -20 -109 -36 -94 -21 -88 55 22 41 60 82 117 92 128 14 15 15 21 4 27 -10
7 -10 13 -2 29 21 39 10 51 -29 34z"/>
<path d="M2693 7854 c-77 -48 -89 -64 -47 -64 18 0 43 17 82 55 32 30 53 54
47 54 -5 0 -43 -21 -82 -45z"/>
<path d="M1081 7757 c-23 -92 -24 -109 -18 -280 16 -436 39 -575 202 -1242 48
-194 147 -502 187 -584 l32 -63 -22 -19 -23 -18 48 -13 c49 -14 70 -43 36 -50
-14 -4 -9 -9 20 -23 26 -13 37 -25 37 -41 0 -15 7 -23 25 -26 14 -3 28 -2 31
3 6 11 -18 58 -66 129 -42 62 -85 147 -120 233 -20 51 -22 65 -13 105 6 26 8
67 4 92 -6 42 -8 45 -34 42 -23 -3 -30 2 -41 30 -17 41 -21 77 -12 100 5 11 2
23 -8 33 -35 35 -76 258 -57 308 8 19 6 27 -4 31 -49 18 -110 269 -140 575
-20 203 -20 222 4 228 27 7 40 43 52 149 16 143 -3 175 -47 80 -20 -45 -23
-58 -13 -74 13 -20 4 -112 -11 -112 -11 0 -16 136 -9 235 3 44 6 66 7 48 3
-41 14 -48 39 -20 49 53 74 104 67 133 -10 44 -11 44 -61 23 -25 -11 -50 -16
-54 -12 -4 4 -9 28 -11 53 -3 43 -4 40 -27 -53z"/>
<path d="M2082 7580 c-87 -31 -232 -112 -284 -159 -52 -46 -124 -177 -135
-245 -8 -49 8 -47 119 11 96 51 192 130 237 197 53 79 42 81 -31 5 -76 -80
-177 -156 -241 -182 l-37 -16 6 27 c18 75 57 111 296 272 160 109 174 127 70
90z"/>
<path d="M1177 7285 c-8 -19 4 -115 14 -115 12 0 21 56 13 94 -7 38 -18 46
-27 21z"/>
<path d="M4012 7241 c-26 -16 115 -28 166 -14 18 4 20 8 10 14 -17 11 -159 11
-176 0z"/>
<path d="M3474 7156 c-7 -30 2 -48 23 -44 10 2 17 16 18 36 2 25 -1 32 -16 32
-11 0 -21 -9 -25 -24z"/>
<path d="M3513 7053 c-8 -3 -13 -23 -13 -51 0 -93 20 -115 59 -65 l21 26 -21
20 c-16 15 -19 27 -15 48 5 29 -2 34 -31 22z"/>
<path d="M1393 7037 c-49 -28 -135 -144 -154 -209 -11 -39 -5 -35 24 15 35 58
70 89 155 133 48 25 72 44 70 54 -4 19 -65 24 -95 7z"/>
<path d="M1755 7028 c-11 -6 -44 -26 -72 -46 -41 -27 -52 -40 -48 -56 3 -12
12 -64 20 -116 22 -133 132 -591 162 -675 42 -117 120 -262 233 -435 59 -91
134 -208 167 -260 111 -180 233 -314 233 -257 0 8 -27 50 -59 95 -74 100 -94
138 -86 162 3 11 37 39 75 62 38 23 66 46 64 50 -7 11 -56 -7 -98 -36 -21 -14
-49 -26 -62 -26 -28 0 -71 53 -80 99 -6 28 -2 35 31 64 21 17 54 47 74 65 l36
32 -45 -20 c-57 -25 -70 -25 -70 0 0 24 -1 24 -47 5 -50 -21 -61 -5 -24 33 50
49 36 135 -15 93 -28 -23 -59 -71 -45 -71 6 0 11 -7 11 -15 0 -24 -24 -18 -54
14 l-28 29 22 19 c81 66 75 57 54 86 -24 33 -25 33 -74 2 -22 -14 -42 -25 -45
-25 -2 0 -2 13 1 30 4 16 3 59 -1 95 l-7 65 -34 -26 c-19 -15 -37 -24 -40 -21
-3 3 9 30 26 61 34 59 29 73 -10 31 -38 -41 -41 -29 -10 42 18 43 25 70 18 74
-7 4 -6 14 1 28 7 12 9 26 6 31 -13 20 -35 9 -68 -35 l-35 -45 -6 26 c-6 21 1
39 33 84 60 86 62 98 12 65 -59 -40 -73 -22 -30 39 34 48 34 65 1 47 -27 -15
-52 -14 -52 1 0 7 23 36 52 65 49 50 51 53 27 53 -14 0 -43 -13 -65 -30 -53
-40 -62 -38 -26 8 35 44 66 102 58 109 -3 3 -18 -4 -34 -16 -60 -43 -69 -20
-16 39 47 52 40 69 -14 31 -23 -17 -42 -29 -42 -26 0 3 22 36 49 73 27 37 48
68 46 70 -1 2 -33 -15 -69 -37 -36 -23 -66 -36 -66 -29 0 6 18 35 40 65 40 53
37 68 -8 37 -38 -27 -35 -10 11 52 66 90 68 98 22 72z"/>
<path d="M3566 6895 c-27 -27 -41 -58 -27 -63 6 -2 11 -16 12 -30 0 -17 10
-35 28 -49 l29 -23 16 25 c18 28 21 45 6 45 -5 0 -10 9 -10 19 0 11 -5 23 -10
26 -6 4 -9 18 -8 32 4 31 -14 40 -36 18z"/>
<path d="M3615 6690 c-23 -26 -8 -26 25 0 18 14 21 20 9 20 -9 0 -24 -9 -34
-20z"/>
<path d="M3637 6649 c-40 -21 -45 -42 -11 -47 23 -3 57 30 52 51 -2 13 -9 12
-41 -4z"/>
<path d="M3660 6571 c-14 -28 -12 -87 4 -100 7 -6 17 -35 20 -63 9 -64 13 -70
35 -59 13 7 17 20 15 49 -1 22 -5 45 -8 51 -4 6 -4 26 -1 45 4 20 2 36 -4 40
-6 4 -11 18 -11 32 0 30 -34 33 -50 5z"/>
<path d="M4334 6498 c3 -13 20 -81 37 -153 83 -346 102 -405 129 -405 19 0 10
102 -20 218 -49 196 -113 362 -138 362 -10 0 -13 -7 -8 -22z"/>
<path d="M3056 6361 c-62 -29 -80 -48 -66 -71 7 -11 17 -8 52 16 24 16 52 33
63 39 20 10 34 46 18 44 -4 0 -34 -13 -67 -28z"/>
<path d="M2355 6175 c-98 -27 -302 -141 -284 -159 4 -5 89 15 144 32 50 16 89
35 117 58 15 12 56 27 92 34 67 13 87 32 44 44 -32 8 -55 6 -113 -9z"/>
<path d="M1787 5865 c-43 -22 -107 -75 -107 -88 0 -26 40 -38 98 -31 48 6 60
12 93 48 l38 41 -27 22 c-32 26 -57 28 -95 8z"/>
<path d="M12 5778 c6 -16 41 -22 85 -13 50 9 30 25 -33 25 -40 0 -55 -4 -52
-12z"/>
<path d="M36 5691 c14 -13 76 -32 83 -25 11 11 -32 34 -63 34 -17 0 -26 -4
-20 -9z"/>
<path d="M2335 5669 c-55 -29 -88 -60 -76 -72 11 -11 72 27 111 68 29 31 17
32 -35 4z"/>
<path d="M1570 5600 c0 -22 1 -23 24 -14 23 9 20 34 -4 34 -13 0 -20 -7 -20
-20z"/>
<path d="M93 5593 c9 -2 23 -2 30 0 6 3 -1 5 -18 5 -16 0 -22 -2 -12 -5z"/>
<path d="M2324 5590 c-22 -9 -64 -56 -64 -72 0 -13 29 5 75 46 39 34 34 44
-11 26z"/>
<path d="M2439 5497 c-71 -40 -89 -56 -89 -74 0 -11 15 -7 58 17 59 34 102 68
102 82 0 13 -12 9 -71 -25z"/>
<path d="M1680 5480 c-11 -7 -7 -10 17 -10 17 0 35 5 38 10 8 13 -35 13 -55 0z"/>
<path d="M2470 5414 c-36 -16 -80 -52 -80 -66 0 -17 29 -7 84 29 76 50 74 71
-4 37z"/>
<path d="M1694 5412 c5 -8 66 -4 66 4 0 2 -16 4 -36 4 -19 0 -33 -4 -30 -8z"/>
<path d="M2478 5340 c-32 -20 -48 -37 -48 -51 0 -18 6 -16 61 22 33 24 62 46
65 51 12 18 -34 6 -78 -22z"/>
<path d="M1819 5306 c8 -10 9 -16 1 -21 -5 -3 -10 -10 -10 -16 0 -11 50 -12
68 0 23 14 -7 51 -42 51 -23 0 -26 -3 -17 -14z"/>
<path d="M2560 5310 c-31 -8 -97 -67 -86 -78 6 -5 136 71 136 80 0 9 -2 9 -50
-2z"/>
<path d="M2800 5231 c-101 -66 -115 -79 -115 -104 0 -19 -9 -33 -30 -47 -27
-18 -28 -20 -8 -20 39 0 116 31 184 75 73 47 88 63 69 75 -10 6 -10 17 4 50 9
23 16 44 14 45 -2 1 -55 -32 -118 -74z"/>
<path d="M2591 5245 c-27 -12 -32 -19 -27 -38 3 -12 6 -28 6 -34 0 -22 53 -14
93 12 46 32 47 39 3 31 -33 -6 -57 6 -36 19 12 7 14 25 3 25 -5 -1 -23 -7 -42
-15z"/>
<path d="M1704 5231 c28 -11 51 -19 53 -17 9 8 -29 27 -64 32 l-38 5 49 -20z"/>
<path d="M2913 5148 c-89 -60 -108 -77 -108 -98 0 -15 -9 -30 -22 -38 -13 -7
-23 -17 -23 -22 0 -42 215 67 350 178 58 48 58 48 -34 8 l-58 -27 6 36 c4 19
5 35 2 35 -3 0 -53 -33 -113 -72z"/>
<path d="M860 5202 c0 -5 7 -15 15 -22 8 -7 15 -8 15 -2 0 5 -7 15 -15 22 -8
7 -15 8 -15 2z"/>
<path d="M1946 5201 c-14 -5 -16 -10 -7 -15 15 -10 61 1 61 14 0 12 -26 12
-54 1z"/>
<path d="M1988 5148 c-63 -13 -66 -38 -4 -38 42 0 76 18 76 41 0 10 -8 10 -72
-3z"/>
<path d="M3090 5088 c-19 -12 -79 -43 -132 -70 -95 -47 -119 -68 -78 -68 42 0
233 108 244 137 10 24 3 24 -34 1z"/>
<path d="M3020 4971 c-79 -38 -146 -74 -148 -80 -7 -22 50 -10 119 25 66 33
72 34 83 18 16 -22 53 -10 131 41 66 45 78 59 31 40 -48 -20 -64 -19 -68 5 -3
18 -16 14 -148 -49z"/>
<path d="M3259 4957 c-24 -13 -80 -45 -124 -70 -44 -25 -93 -53 -108 -61 -16
-9 -26 -20 -23 -25 11 -17 99 18 176 69 125 84 174 137 79 87z"/>
<path d="M32 4830 c-32 -14 -27 -36 11 -44 47 -11 504 -25 796 -26 253 0 254
0 229 19 -13 11 -35 22 -49 25 -13 3 -186 10 -384 16 -198 5 -409 12 -470 15
-60 2 -120 0 -133 -5z"/>
<path d="M11 4611 c9 -6 79 -13 155 -15 101 -4 122 -3 79 4 -108 15 -252 22
-234 11z"/>
<path d="M35 4550 c3 -5 20 -11 38 -14 50 -8 271 -17 266 -11 -4 3 -277 35
-307 35 -2 0 -1 -4 3 -10z"/>
<path d="M50 4489 c0 -5 11 -9 25 -9 14 0 25 2 25 4 0 2 -11 6 -25 8 -14 3
-25 1 -25 -3z"/>
<path d="M22 4399 c6 -17 121 -24 170 -10 l33 9 -41 1 c-23 1 -69 4 -104 8
-51 5 -62 4 -58 -8z"/>
<path d="M3597 4383 c18 -2 50 -2 70 0 21 2 7 4 -32 4 -38 0 -55 -2 -38 -4z"/>
<path d="M12 4329 c4 -11 32 -14 129 -15 l124 -1 -95 7 c-52 4 -110 11 -129
15 -27 6 -33 5 -29 -6z"/>
<path d="M2665 4318 c28 -5 64 -12 80 -17 40 -10 127 1 133 17 3 9 -27 12
-130 11 -112 -1 -125 -3 -83 -11z"/>
<path d="M4270 3811 c0 -12 5 -21 10 -21 6 0 10 6 10 14 0 8 -4 18 -10 21 -5
3 -10 -3 -10 -14z"/>
<path d="M2228 3763 c45 -2 119 -2 165 0 45 1 8 3 -83 3 -91 0 -128 -2 -82 -3z"/>
<path d="M2163 3659 c28 -16 126 -23 203 -13 l69 8 -60 7 c-101 12 -233 10
-212 -2z"/>
<path d="M2135 3551 c-3 -5 -2 -11 2 -13 5 -2 94 -1 198 2 l190 5 -130 7
c-174 10 -253 10 -260 -1z"/>
<path d="M2167 3453 c-4 -3 -7 -9 -7 -13 0 -13 140 -20 257 -13 l118 7 -145
12 c-176 15 -215 16 -223 7z"/>
<path d="M2168 3339 c-10 -5 -18 -18 -18 -28 0 -16 13 -19 98 -24 158 -11
1375 -8 1392 3 11 7 -3 10 -45 10 -33 0 -328 7 -655 15 -548 13 -681 19 -735
31 -11 2 -28 -1 -37 -7z"/>
<path d="M4543 3284 c-56 -13 -12 -21 135 -27 170 -7 608 -9 601 -3 -10 10
-701 37 -736 30z"/>
<path d="M7677 1301 c-86 -28 -103 -43 -117 -100 -14 -60 -3 -86 44 -106 41
-17 198 -45 255 -45 38 0 42 2 30 16 -7 9 -13 24 -14 35 -1 10 -5 22 -9 26 -4
5 -58 11 -119 14 -62 3 -120 9 -129 13 -28 13 -23 60 7 80 48 32 339 47 430
22 100 -26 166 -79 143 -115 -19 -31 -47 -42 -141 -57 -111 -18 -127 -22 -127
-36 0 -8 28 -9 90 -5 138 10 183 37 201 118 11 47 -1 68 -55 96 -47 24 -202
52 -321 58 -91 4 -120 2 -168 -14z"/>
<path d="M7812 1218 c4 -27 47 -41 100 -32 42 6 51 15 42 38 -5 13 -21 16 -76
16 -66 0 -69 -1 -66 -22z"/>
<path d="M187 1003 c-12 -12 -7 -50 7 -63 11 -8 66 -11 198 -8 101 2 337 -1
526 -6 257 -7 342 -6 342 2 0 14 368 17 560 5 l115 -7 -75 -13 c-70 -11 -64
-12 105 -8 99 2 198 9 220 14 52 14 310 13 500 -2 83 -6 347 -11 588 -11 403
-1 439 -2 448 -18 8 -15 14 -16 37 -5 20 9 164 12 564 12 389 0 540 3 548 11
16 16 -141 21 -1025 34 -1015 15 -1566 27 -2240 50 -559 19 -1405 27 -1418 13z"/>
<path d="M4218 843 c23 -2 59 -2 80 0 20 2 1 4 -43 4 -44 0 -61 -2 -37 -4z"/>
<path d="M1911 768 c-89 -15 -63 -18 124 -13 270 8 333 21 105 21 -102 0 -205
-3 -229 -8z"/>
</g>
</svg>
